<?xml version="1.0" encoding="UTF-8" standalone="no"?>
<!-- Created with Inkscape (http://www.inkscape.org/) -->

<svg
   width="75mm"
   height="75mm"
   viewBox="0 0 75 75"
   version="1.1"
   id="svg1"
   xml:space="preserve"
   xmlns="http://www.w3.org/2000/svg"
   xmlns:svg="http://www.w3.org/2000/svg"><defs
     id="defs1" /><rect
     style="fill:#ffffff;fill-opacity:0;stroke-width:0.336683"
     id="rect25"
     width="202.36786"
     height="202.71707"
     x="-0.71983314"
     y="-0.98441356" /><rect
     style="fill:#ffffff;stroke-width:0.264583"
     id="rect1"
     width="6.233933"
     height="53.020565"
     x="43.700558"
     y="10.989717"
     ry="0.17137961" /><g
     style="fill:#ffffff"
     id="g2"
     transform="matrix(1.3577624,0,0,1.3577624,16.054486,28.541399)"><path
       d="m 8.704893,12.90325 c 0.39051,0.3905 1.02371,0.3905 1.414209,0 l 4.8874,-4.8923 c 0.7804,-0.7811 0.7801,-2.0469 -6e-4,-2.8277 l -4.8904,-4.89036 c -0.390499,-0.39052 -1.023699,-0.39052 -1.414219,0 -0.39053,0.39053 -0.39053,1.02369 0,1.41422 l 4.185619,4.18564 c 0.3906,0.3905 0.3906,1.0237 0,1.4142 l -4.182009,4.1821 c -0.39053,0.3905 -0.39053,1.0236 0,1.4142 z"
       fill="#0f0f0f"
       id="path1"
       style="opacity:1;fill:#ffffff" /></g></svg>
